<svg width="358" height="51" fill="none" xmlns="http://www.w3.org/2000/svg"><rect width="358" height="50.152" rx="2" fill="#000"/><path d="M163.108 22.663c-.486-2.685-2.634-4.27-5.267-4.27-3.35 0-5.779 2.582-5.779 6.724s2.429 6.725 5.779 6.725c2.633 0 4.781-1.585 5.267-4.27h-1.586c-.383 1.815-1.943 2.787-3.681 2.787-2.378 0-4.245-1.841-4.245-5.242 0-3.4 1.867-5.241 4.245-5.241 1.738 0 3.298.971 3.681 2.787h1.586Zm2.357 9h1.508V25.45c0-1.33 1.048-2.301 2.48-2.301.403 0 .818.076.921.102v-1.534a14.508 14.508 0 0 0-.793-.026c-1.176 0-2.199.665-2.557 1.637h-.102v-1.483h-1.457v9.818Zm10.515.204c1.994 0 3.451-.997 3.912-2.48l-1.458-.409c-.383 1.023-1.272 1.534-2.454 1.534-1.771 0-2.992-1.144-3.062-3.247h7.127v-.64c0-3.655-2.173-4.908-4.219-4.908-2.659 0-4.423 2.096-4.423 5.114 0 3.017 1.739 5.036 4.577 5.036Zm-3.062-5.906c.102-1.528 1.182-2.89 2.908-2.89 1.637 0 2.685 1.228 2.685 2.89h-5.593Zm12.311 5.932c1.713 0 2.608-.92 2.915-1.56h.076v1.33h1.509v-6.469c0-3.12-2.378-3.477-3.631-3.477-1.483 0-3.17.511-3.937 2.301l1.432.511c.332-.716 1.118-1.483 2.556-1.483 1.387 0 2.071.735 2.071 1.995v.05c0 .73-.741.666-2.531.896-1.822.236-3.81.639-3.81 2.889 0 1.918 1.483 3.017 3.35 3.017Zm.23-1.355c-1.202 0-2.071-.537-2.071-1.585 0-1.151 1.048-1.509 2.224-1.662.64-.077 2.353-.256 2.608-.563v1.38c0 1.228-.971 2.43-2.761 2.43Zm11.293-8.693h-2.096v-2.353h-1.509v2.353h-1.483v1.278h1.483v6.136c0 1.713 1.381 2.532 2.659 2.532.563 0 .921-.103 1.125-.18l-.307-1.354c-.128.025-.332.076-.664.076-.665 0-1.304-.204-1.304-1.483v-5.727h2.096v-1.278Zm6.28 10.022c1.995 0 3.452-.997 3.912-2.48l-1.457-.409c-.384 1.023-1.272 1.534-2.455 1.534-1.77 0-2.991-1.144-3.061-3.247h7.127v-.64c0-3.655-2.174-4.908-4.219-4.908-2.659 0-4.423 2.096-4.423 5.114 0 3.017 1.738 5.036 4.576 5.036Zm-3.061-5.906c.102-1.528 1.182-2.89 2.908-2.89 1.636 0 2.685 1.228 2.685 2.89h-5.593Z" fill="#fff"/></svg>