<svg width="238" height="46" fill="none" xmlns="http://www.w3.org/2000/svg"><rect width="238" height="46" rx="2" fill="#000"/><path d="M106.75 21h-1.233a2.57 2.57 0 0 0-1.039-1.61 2.777 2.777 0 0 0-.85-.418 3.39 3.39 0 0 0-.974-.14c-.617 0-1.175.156-1.676.468-.497.311-.893.77-1.188 1.377-.291.606-.437 1.35-.437 2.232 0 .882.146 1.626.437 2.232.295.607.691 1.066 1.188 1.378a3.108 3.108 0 0 0 1.676.467c.338 0 .663-.047.974-.14.312-.092.595-.23.85-.412.259-.186.478-.413.657-.681.182-.272.309-.584.382-.935h1.233c-.092.52-.261.986-.507 1.397a3.807 3.807 0 0 1-2.143 1.7c-.45.15-.933.224-1.446.224-.869 0-1.641-.212-2.317-.636-.676-.424-1.208-1.028-1.596-1.81-.388-.782-.582-1.71-.582-2.784 0-1.074.194-2.002.582-2.784.388-.782.92-1.385 1.596-1.81.676-.424 1.448-.636 2.317-.636.513 0 .996.075 1.446.224.455.149.864.368 1.228.656.365.285.67.633.915 1.044.246.408.415.873.507 1.397Zm1.834 7v-7.636h1.133v1.153h.08c.139-.378.391-.684.755-.92a2.227 2.227 0 0 1 1.233-.353c.087 0 .194.002.323.005.13.004.228.009.294.015v1.193a3.46 3.46 0 0 0-.274-.044 2.681 2.681 0 0 0-.442-.035c-.371 0-.703.078-.994.233a1.712 1.712 0 0 0-.935 1.556V28h-1.173Zm8.178.16c-.736 0-1.371-.163-1.904-.488a3.263 3.263 0 0 1-1.228-1.372c-.285-.59-.428-1.276-.428-2.059 0-.782.143-1.471.428-2.068.288-.6.689-1.067 1.203-1.402.517-.338 1.12-.507 1.81-.507.397 0 .79.067 1.178.2.388.132.741.347 1.059.645.318.295.572.686.76 1.174.189.487.284 1.087.284 1.8v.497h-5.887v-1.015h4.694c0-.43-.087-.815-.259-1.153a1.948 1.948 0 0 0-.726-.8c-.311-.196-.679-.294-1.103-.294-.468 0-.872.116-1.213.348a2.28 2.28 0 0 0-.781.895 2.632 2.632 0 0 0-.273 1.183v.677c0 .576.099 1.065.298 1.466.202.398.482.701.84.91.358.205.774.308 1.248.308.308 0 .587-.043.835-.13.252-.089.469-.221.651-.397.183-.179.324-.4.423-.666l1.134.318c-.12.385-.32.723-.602 1.014-.282.289-.63.514-1.044.677-.414.159-.88.238-1.397.238Zm7.194.019c-.484 0-.923-.091-1.318-.273a2.262 2.262 0 0 1-.939-.8c-.232-.352-.348-.777-.348-1.274 0-.437.086-.792.258-1.064.173-.275.403-.49.691-.646.289-.156.607-.272.955-.348.351-.08.704-.142 1.059-.189.464-.06.84-.104 1.128-.134.292-.033.504-.088.637-.164.136-.076.203-.209.203-.398v-.04c0-.49-.134-.871-.402-1.143-.265-.272-.668-.408-1.208-.408-.56 0-1 .123-1.318.368-.318.245-.542.507-.671.786l-1.114-.398c.199-.464.464-.825.796-1.084a2.978 2.978 0 0 1 1.094-.547 4.53 4.53 0 0 1 1.173-.159c.245 0 .527.03.845.09.322.056.631.174.93.353.301.179.552.449.75.81.199.361.299.845.299 1.452V28h-1.174v-1.034h-.059a2.07 2.07 0 0 1-.398.532c-.185.189-.432.35-.741.482-.308.133-.684.199-1.128.199Zm.179-1.054c.464 0 .855-.091 1.173-.273a1.856 1.856 0 0 0 .974-1.616v-1.074c-.049.06-.159.114-.328.164a5.531 5.531 0 0 1-.576.124 26.457 26.457 0 0 1-1.124.15c-.305.04-.59.104-.855.193a1.47 1.47 0 0 0-.636.393c-.159.172-.239.408-.239.706 0 .408.151.716.452.925.305.205.691.308 1.159.308Zm8.783-6.761v.994h-3.957v-.994h3.957Zm-2.804-1.83h1.174v7.279c0 .33.048.58.144.745a.744.744 0 0 0 .378.328c.155.053.319.08.492.08.129 0 .235-.007.318-.02l.199-.04.239 1.054c-.08.03-.191.06-.334.09-.142.033-.323.05-.541.05-.332 0-.657-.072-.975-.214a1.93 1.93 0 0 1-.785-.652c-.206-.291-.309-.66-.309-1.103v-7.597Zm7.689 9.625c-.736 0-1.371-.162-1.904-.487a3.263 3.263 0 0 1-1.228-1.372c-.285-.59-.428-1.276-.428-2.059 0-.782.143-1.471.428-2.068.288-.6.689-1.067 1.203-1.402.517-.338 1.12-.507 1.81-.507.397 0 .79.067 1.178.2.388.132.741.347 1.059.645.318.295.572.686.76 1.174.189.487.284 1.087.284 1.8v.497h-5.887v-1.015h4.694c0-.43-.087-.815-.259-1.153a1.948 1.948 0 0 0-.726-.8c-.311-.196-.679-.294-1.103-.294-.468 0-.872.116-1.213.348a2.28 2.28 0 0 0-.781.895 2.632 2.632 0 0 0-.273 1.183v.677c0 .576.099 1.065.298 1.466.202.398.482.701.84.91.358.205.774.308 1.248.308.308 0 .587-.043.835-.13.252-.089.469-.221.651-.397.183-.179.324-.4.423-.666l1.134.318c-.12.385-.32.723-.602 1.014-.282.289-.63.514-1.044.677-.414.159-.88.238-1.397.238Z" fill="#fff"/></svg>