<svg width="320" height="56" fill="none" xmlns="http://www.w3.org/2000/svg"><path opacity=".7" stroke="#545454" d="M0 55.5h320"/><path d="m30.052 23.714 1.75-5.003h7.443l1.74 5.003h3.052L37.179 4.812h-3.321L27 23.714h3.052Zm2.587-7.402 2.81-8.067h.149l2.81 8.067h-5.77ZM46.566 23.714h2.782v-8.657c0-1.856 1.442-3.194 3.415-3.194.576 0 1.228.102 1.451.166V9.39c-.28-.036-.828-.064-1.182-.064-1.674 0-3.107.941-3.628 2.464h-.15V9.537h-2.688v14.177ZM62.13 24c4.029 0 6.662-2.926 6.662-7.31 0-4.412-2.633-7.337-6.662-7.337s-6.662 2.925-6.662 7.337c0 4.384 2.633 7.31 6.662 7.31Zm.01-2.317c-2.634 0-3.862-2.28-3.862-5.002 0-2.714 1.228-5.021 3.861-5.021 2.615 0 3.843 2.307 3.843 5.02 0 2.724-1.228 5.003-3.843 5.003ZM80.951 17.835c.01 2.409-1.796 3.553-3.359 3.553-1.721 0-2.912-1.237-2.912-3.166V9.537h-2.782v9.018c0 3.516 1.944 5.343 4.69 5.343 2.149 0 3.61-1.125 4.27-2.64h.15v2.456h2.735V9.537H80.95v8.298ZM90.263 15.296c0-2.26 1.396-3.553 3.331-3.553 1.889 0 3.033 1.228 3.033 3.286v8.685h2.783v-9.017c0-3.508-1.945-5.344-4.867-5.344-2.15 0-3.554.987-4.215 2.492h-.177V9.537h-2.67v14.177h2.782v-8.417ZM108.491 23.99c2.605 0 3.629-1.577 4.131-2.482h.233v2.206h2.717V4.812h-2.782v7.023h-.168c-.502-.876-1.451-2.482-4.112-2.482-3.452 0-5.993 2.704-5.993 7.3 0 4.587 2.503 7.338 5.974 7.338Zm.614-2.353c-2.484 0-3.778-2.169-3.778-5.011 0-2.816 1.266-4.929 3.778-4.929 2.429 0 3.731 1.966 3.731 4.929 0 2.98-1.33 5.011-3.731 5.011ZM119.206.763h1.997v5.624h.77V.763h1.997V.086h-4.764v.677ZM125.79 3.544c0-.824.53-1.292 1.253-1.292.688 0 1.104.43 1.104 1.181v2.954h.732V3.384c0-1.215-.651-1.784-1.625-1.784-.751 0-1.179.31-1.402.8h-.062V.086h-.732v6.3h.732V3.545ZM132.216 6.485c.967 0 1.674-.48 1.898-1.193l-.707-.197c-.187.492-.618.738-1.191.738-.86 0-1.452-.55-1.486-1.563h3.458v-.307c0-1.76-1.054-2.363-2.047-2.363-1.29 0-2.146 1.009-2.146 2.461s.843 2.424 2.221 2.424Zm-1.486-2.842c.049-.736.574-1.391 1.411-1.391.794 0 1.303.59 1.303 1.39h-2.714ZM142.026.086v4.11c0 .923-.639 1.588-1.7 1.588s-1.7-.665-1.7-1.588V.086h-.769v4.172c0 1.292.974 2.24 2.469 2.24 1.495 0 2.469-.948 2.469-2.24V.086h-.769ZM144.467 6.436c.307 0 .558-.25.558-.554a.557.557 0 0 0-1.117 0c0 .305.252.554.559.554ZM149.912 1.661h.744C150.622.711 149.738 0 148.51 0c-1.216 0-2.171.701-2.171 1.76 0 .849.62 1.353 1.612 1.636l.782.222c.67.185 1.265.418 1.265 1.046 0 .69-.67 1.144-1.55 1.144-.757 0-1.427-.332-1.489-1.046h-.794c.074 1.034.918 1.736 2.283 1.736 1.464 0 2.295-.8 2.295-1.822 0-1.181-1.129-1.563-1.787-1.735l-.645-.172c-.471-.123-1.228-.37-1.228-1.046 0-.603.558-1.046 1.402-1.046.769 0 1.352.363 1.427.984ZM152.442 6.436c.307 0 .558-.25.558-.554a.557.557 0 0 0-1.117 0c0 .305.252.554.559.554Z" fill="#fff"/></svg>