<svg width="238" height="46" fill="none" xmlns="http://www.w3.org/2000/svg"><rect width="238" height="46" rx="2" fill="#000"/><path d="M109.696 20.364h1.193c-.055-1.537-1.472-2.685-3.44-2.685-1.949 0-3.481 1.134-3.481 2.844 0 1.372.995 2.187 2.586 2.645l1.252.358c1.074.298 2.029.676 2.029 1.69 0 1.113-1.074 1.85-2.486 1.85-1.213 0-2.287-.538-2.386-1.691h-1.273c.119 1.67 1.472 2.804 3.659 2.804 2.347 0 3.679-1.293 3.679-2.943 0-1.91-1.81-2.526-2.864-2.804l-1.034-.279c-.755-.198-1.968-.596-1.968-1.69 0-.974.894-1.69 2.247-1.69 1.233 0 2.167.586 2.287 1.59Zm5.447 7.815c1.333 0 2.029-.716 2.267-1.213h.06V28h1.173v-5.031c0-2.426-1.849-2.705-2.824-2.705-1.153 0-2.465.398-3.062 1.79l1.114.398c.258-.557.87-1.154 1.988-1.154 1.079 0 1.611.572 1.611 1.551v.04c0 .567-.577.517-1.969.696-1.417.184-2.963.497-2.963 2.247 0 1.492 1.154 2.347 2.605 2.347Zm.179-1.054c-.934 0-1.611-.418-1.611-1.233 0-.895.816-1.173 1.731-1.293.497-.06 1.829-.198 2.028-.437v1.074c0 .954-.756 1.889-2.148 1.889Zm11.434-6.761h-1.273l-2.108 6.085h-.08l-2.107-6.085h-1.273L122.739 28h1.193l2.824-7.636Zm4.477 7.795c1.551 0 2.684-.775 3.042-1.929l-1.133-.318c-.299.795-.99 1.193-1.909 1.193-1.378 0-2.327-.89-2.382-2.526h5.544v-.497c0-2.843-1.691-3.818-3.282-3.818-2.068 0-3.44 1.63-3.44 3.977s1.352 3.918 3.56 3.918Zm-2.382-4.594c.08-1.188.92-2.247 2.262-2.247 1.273 0 2.088.955 2.088 2.247h-4.35Z" fill="#fff"/></svg>