<svg width="358" height="51" fill="none" xmlns="http://www.w3.org/2000/svg"><rect opacity=".2" x=".5" y=".5" width="357" height="49.152" rx="1.5" stroke="#000"/><path opacity=".2" d="M167.537 21.845h1.534c-.07-1.976-1.892-3.452-4.423-3.452-2.506 0-4.474 1.457-4.474 3.656 0 1.764 1.278 2.813 3.324 3.4l1.61.461c1.381.384 2.608.87 2.608 2.173 0 1.432-1.38 2.378-3.196 2.378-1.559 0-2.94-.69-3.068-2.173h-1.636c.153 2.148 1.892 3.605 4.704 3.605 3.017 0 4.73-1.662 4.73-3.784 0-2.455-2.326-3.247-3.681-3.605l-1.33-.358c-.972-.256-2.531-.767-2.531-2.174 0-1.252 1.15-2.173 2.889-2.173 1.585 0 2.787.755 2.94 2.046Zm7.004 10.048c1.713 0 2.608-.92 2.915-1.56h.077v1.33h1.508v-6.469c0-3.12-2.377-3.477-3.63-3.477-1.483 0-3.171.511-3.938 2.301l1.432.511c.332-.716 1.119-1.483 2.557-1.483 1.387 0 2.071.735 2.071 1.995v.05c0 .73-.742.666-2.531.896-1.822.236-3.81.639-3.81 2.889 0 1.918 1.483 3.017 3.349 3.017Zm.23-1.355c-1.201 0-2.071-.537-2.071-1.585 0-1.151 1.049-1.509 2.225-1.662.639-.077 2.352-.256 2.608-.563v1.38c0 1.228-.972 2.43-2.762 2.43Zm14.701-8.693h-1.637l-2.71 7.824h-.102l-2.711-7.824h-1.636l3.631 9.818h1.534l3.631-9.818Zm5.756 10.022c1.994 0 3.451-.997 3.912-2.48l-1.458-.409c-.383 1.023-1.272 1.534-2.454 1.534-1.771 0-2.992-1.144-3.062-3.247h7.127v-.64c0-3.655-2.173-4.908-4.219-4.908-2.659 0-4.423 2.096-4.423 5.114 0 3.017 1.739 5.036 4.577 5.036Zm-3.062-5.906c.102-1.528 1.182-2.89 2.908-2.89 1.637 0 2.685 1.228 2.685 2.89h-5.593Z" fill="#000"/></svg>