<svg width="238" height="46" fill="none" xmlns="http://www.w3.org/2000/svg"><rect opacity=".2" x=".5" y=".5" width="237" height="45" rx="1.5" stroke="#000"/><path opacity=".2" d="M110.028 20.895h1.193c-.054-1.536-1.471-2.684-3.44-2.684-1.949 0-3.48 1.133-3.48 2.844 0 1.372.994 2.187 2.585 2.644l1.253.358c1.074.299 2.028.676 2.028 1.69 0 1.114-1.074 1.85-2.485 1.85-1.214 0-2.287-.537-2.387-1.69h-1.273c.12 1.67 1.472 2.804 3.66 2.804 2.346 0 3.678-1.293 3.678-2.944 0-1.909-1.809-2.525-2.863-2.803l-1.034-.279c-.756-.199-1.969-.596-1.969-1.69 0-.975.895-1.69 2.247-1.69 1.233 0 2.168.586 2.287 1.59Zm5.448 7.816c1.332 0 2.028-.716 2.267-1.213h.059v1.034h1.174V23.5c0-2.426-1.85-2.704-2.824-2.704-1.154 0-2.466.398-3.063 1.79l1.114.397c.259-.556.87-1.153 1.989-1.153 1.078 0 1.61.572 1.61 1.551v.04c0 .567-.576.517-1.968.696-1.417.184-2.963.497-2.963 2.247 0 1.492 1.153 2.347 2.605 2.347Zm.179-1.054c-.935 0-1.611-.418-1.611-1.233 0-.895.815-1.174 1.73-1.293.497-.06 1.83-.199 2.028-.437v1.073c0 .955-.755 1.89-2.147 1.89Zm11.433-6.762h-1.273l-2.108 6.086h-.079l-2.108-6.086h-1.273l2.824 7.637h1.193l2.824-7.637Zm4.477 7.796c1.551 0 2.685-.776 3.043-1.93l-1.134-.317c-.298.795-.989 1.193-1.909 1.193-1.377 0-2.327-.89-2.381-2.526h5.543v-.497c0-2.844-1.69-3.818-3.281-3.818-2.068 0-3.441 1.63-3.441 3.977s1.353 3.918 3.56 3.918Zm-2.381-4.594c.079-1.188.919-2.247 2.262-2.247 1.272 0 2.088.954 2.088 2.247h-4.35Z" fill="#000"/></svg>